<?xml version="1.0" standalone="no"?>
<!DOCTYPE svg PUBLIC "-//W3C//DTD SVG 20010904//EN" "http://www.w3.org/TR/2001/REC-SVG-20010904/DTD/svg10.dtd">
<svg version="1.0" xmlns="http://www.w3.org/2000/svg" width="508.000000pt" height="678.000000pt"
    viewBox="0 0 508.000000 678.000000" preserveAspectRatio="xMidYMid meet">

    <g transform="translate(0.000000,678.000000) scale(0.100000,-0.100000)" fill="#0070f3" stroke="none">
        <path d="M2305 6694 c-266 -29 -432 -63 -585 -121 -381 -144 -715 -406 -943
-739 -58 -85 -148 -247 -181 -324 -11 -25 -27 -63 -37 -85 -31 -71 -87 -280
-105 -386 -14 -84 -18 -197 -21 -596 l-5 -491 -45 -12 c-149 -37 -271 -164
-303 -317 -7 -32 -10 -584 -8 -1664 l3 -1615 38 -76 c44 -91 107 -152 205
-200 l67 -33 2153 -3 c2369 -2 2201 -7 2303 58 65 43 126 111 157 178 l27 57
0 1665 0 1665 -26 55 c-38 81 -115 160 -196 201 l-68 34 -1777 3 -1778 2 0
453 c0 248 5 486 10 527 20 156 104 373 198 509 64 94 211 243 311 314 274
198 554 277 878 248 273 -24 432 -83 634 -233 215 -159 337 -337 429 -623 57
-176 88 -240 140 -289 111 -104 240 -129 383 -76 171 64 256 228 217 422 -38
195 -144 452 -258 628 -284 437 -773 749 -1322 842 -111 18 -405 32 -495 22z
m-1571 -3217 c135 -104 81 -329 -83 -345 -78 -7 -118 5 -166 49 -79 73 -84
192 -13 268 45 48 82 62 159 58 54 -2 73 -7 103 -30z m3868 0 c42 -32 78 -102
78 -151 0 -45 -26 -115 -53 -145 -46 -49 -149 -67 -220 -37 -130 54 -140 259
-18 338 41 26 53 29 111 26 53 -3 72 -9 102 -31z m-1867 -638 c134 -50 240
-143 299 -263 55 -113 70 -230 45 -348 -20 -95 -99 -224 -155 -256 -14 -8 -12
-28 20 -188 20 -98 43 -208 51 -244 7 -36 21 -105 30 -155 9 -49 23 -120 32
-158 15 -63 15 -68 -2 -87 -18 -19 -32 -20 -499 -20 -408 1 -484 3 -500 15
-22 17 -24 2 64 445 36 178 57 289 66 343 6 34 3 42 -28 75 -96 101 -142 216
-141 357 0 240 165 434 428 506 56 15 225 3 290 -22z m-2026 -2007 c54 -27 93
-83 99 -141 7 -72 -5 -117 -40 -157 -37 -42 -60 -55 -113 -65 -101 -19 -200
41 -224 136 -21 85 9 170 77 215 38 25 55 30 106 30 38 0 74 -7 95 -18z m3869
4 c85 -44 125 -162 87 -254 -38 -91 -124 -134 -222 -112 -115 26 -172 142
-129 263 16 45 39 73 81 98 37 23 143 26 183 5z" />
    </g>
</svg>